<svg width="0" height="0" class="hidden">
  <symbol xmlns="http://www.w3.org/2000/svg" viewBox="0 0 511.999 511.999" id="easy">
    <path d="M511.934 238.057c-3.964-58.592-27.101-112.43-66.912-155.693a8.346 8.346 0 00-11.795-.49 8.346 8.346 0 00-.49 11.795c35.18 38.235 56.431 85.302 61.775 136.604H364.866c-9.666-41.405-42.109-73.73-83.546-83.242V17.444c41.5 4.293 81.016 19.299 114.779 43.667a8.348 8.348 0 009.773-13.537C367.159 19.633 321.395 3.193 273.523.03a8.346 8.346 0 00-8.897 8.33v145.535a8.349 8.349 0 007.001 8.238c40.051 6.547 71.465 37.839 78.169 77.867a8.345 8.345 0 008.232 6.969h145.577a8.348 8.348 0 008.329-8.912zm-2.192 28.258a8.35 8.35 0 00-6.091-2.638H358.157a8.346 8.346 0 00-8.243 7.033c-2.288 14.351-7.99 28.209-16.488 40.078a8.346 8.346 0 00.884 10.763l102.96 102.96a8.353 8.353 0 006.183 2.44 8.353 8.353 0 006.005-2.851c37.258-42.626 58.88-95.028 62.525-151.539a8.356 8.356 0 00-2.241-6.246zm-67.094 139.961l-91.691-91.691a111.892 111.892 0 0014.085-34.213h129.545c-4.698 46.459-22.517 89.66-51.939 125.904z"></path>
    <path d="M425.482 436.348L322.56 333.426a8.348 8.348 0 00-10.8-.858c-16.243 11.763-35.431 17.981-55.489 17.981-52.291 0-94.832-42.542-94.832-94.832 0-46.697 33.425-86.054 79.478-93.582a8.346 8.346 0 007.001-8.238V8.361c0-2.311-.957-4.517-2.643-6.095S241.329-.127 239.02.031C177.231 4.114 119.003 30.564 75.06 74.507 26.657 122.909 0 187.264 0 255.717s26.657 132.808 75.06 181.211 112.758 75.06 181.211 75.06c62.247 0 122.199-22.538 168.815-63.463a8.353 8.353 0 00.396-12.177zm-169.211 58.944c-63.993 0-124.156-24.92-169.406-70.17-45.249-45.25-70.169-105.412-70.169-169.405s24.92-124.155 70.17-169.404c38.964-38.965 89.933-63.216 144.355-68.867v129.59c-23.058 5.324-44.012 17.981-59.593 36.133-17.337 20.198-26.886 45.961-26.886 72.548 0 61.497 50.032 111.528 111.528 111.528 21.201 0 41.576-5.905 59.355-17.141l91.632 91.632c-42.518 34.599-95.785 53.556-150.986 53.556z"></path>
  </symbol>
  <symbol xmlns="http://www.w3.org/2000/svg" viewBox="0 0 512 512" id="fast">
    <path d="M64.65 264.081v32.325a7.5 7.5 0 007.5 7.5h367.7a7.5 7.5 0 007.5-7.5v-32.325a7.5 7.5 0 00-7.5-7.5H72.15a7.5 7.5 0 00-7.5 7.5zm15 7.5h352.7v17.325H79.65z"></path>
    <path d="M484.3 10.1H27.7C12.426 10.1 0 22.526 0 37.8v333.36c0 15.274 12.426 27.7 27.7 27.7h153.959l-21.7 55.71H134.78a7.5 7.5 0 00-7.5 7.5v32.33a7.5 7.5 0 007.5 7.5h242.44a7.5 7.5 0 007.5-7.5v-32.33a7.5 7.5 0 00-7.5-7.5h-25.179l-21.7-55.71h68.629c4.142 0 7.5-3.357 7.5-7.5s-3.358-7.5-7.5-7.5H27.7c-7.003 0-12.7-5.697-12.7-12.7V37.8c0-7.003 5.697-12.7 12.7-12.7h456.6c7.003 0 12.7 5.697 12.7 12.7v333.36c0 7.003-5.697 12.7-12.7 12.7h-50.33c-4.142 0-7.5 3.357-7.5 7.5s3.358 7.5 7.5 7.5h50.33c15.274 0 27.7-12.426 27.7-27.7V37.8c0-15.274-12.426-27.7-27.7-27.7zM335.943 454.57H222.18c-4.142 0-7.5 3.357-7.5 7.5s3.358 7.5 7.5 7.5h147.54v17.33H142.28v-17.33h44.9c4.142 0 7.5-3.357 7.5-7.5s-3.358-7.5-7.5-7.5h-11.123l21.7-55.71h116.485z"></path>
    <path d="M72 42.43H47.91c-8.591 0-15.58 6.989-15.58 15.58v262.64c0 8.591 6.989 15.58 15.58 15.58h416.18c8.591 0 15.58-6.989 15.58-15.58V58.01c0-8.591-6.989-15.58-15.58-15.58H107c-4.142 0-7.5 3.357-7.5 7.5s3.358 7.5 7.5 7.5h357.09c.32 0 .58.26.58.58v262.64c0 .32-.26.58-.58.58H47.91a.58.58 0 01-.58-.58V58.01c0-.32.26-.58.58-.58H72c4.142 0 7.5-3.357 7.5-7.5s-3.358-7.5-7.5-7.5z"></path>
    <path d="M172.157 184.563c15.753 0 28.569-12.816 28.569-28.569s-12.816-28.569-28.569-28.569-28.569 12.816-28.569 28.569 12.815 28.569 28.569 28.569zm0-42.138c7.482 0 13.569 6.087 13.569 13.569s-6.087 13.569-13.569 13.569-13.569-6.087-13.569-13.569 6.087-13.569 13.569-13.569z"></path>
    <path d="M96.678 138.163a7.5 7.5 0 00-5.763 7.296v21.069a7.5 7.5 0 005.763 7.296l19.677 4.686c.138.341.279.682.424 1.021l-10.601 17.228a7.5 7.5 0 001.084 9.234l14.898 14.897a7.501 7.501 0 009.234 1.084l17.228-10.602c.339.145.679.286 1.02.424l4.686 19.677a7.5 7.5 0 007.296 5.763h21.069a7.5 7.5 0 007.296-5.763l4.686-19.677c.341-.138.681-.279 1.02-.424l17.228 10.602a7.5 7.5 0 009.234-1.084l14.898-14.897a7.5 7.5 0 001.084-9.234l-10.602-17.228c.145-.34.286-.68.424-1.021l19.677-4.686a7.501 7.501 0 005.763-7.296v-21.069a7.5 7.5 0 00-5.763-7.296l-19.676-4.685a56.337 56.337 0 00-.424-1.021l10.601-17.228a7.498 7.498 0 00-1.084-9.233l-14.898-14.899a7.504 7.504 0 00-9.234-1.084l-17.228 10.602a53.5 53.5 0 00-1.021-.424l-4.685-19.677a7.5 7.5 0 00-7.296-5.763h-21.069a7.5 7.5 0 00-7.296 5.763l-4.685 19.677a53.5 53.5 0 00-1.021.424l-17.228-10.602a7.503 7.503 0 00-9.234 1.084l-14.898 14.899a7.498 7.498 0 00-1.084 9.233l10.602 17.228c-.145.339-.286.68-.424 1.021zm34.995-10.122l-9.617-15.627 6.52-6.521 15.627 9.617a7.507 7.507 0 007.358.283 44.94 44.94 0 016.738-2.799 7.5 7.5 0 004.998-5.402l4.248-17.841h9.221l4.248 17.841a7.497 7.497 0 004.998 5.402 44.89 44.89 0 016.739 2.799 7.505 7.505 0 007.357-.283l15.627-9.617 6.52 6.521-9.616 15.627a7.498 7.498 0 00-.285 7.356 44.992 44.992 0 012.8 6.74 7.5 7.5 0 005.402 4.998l17.84 4.247v9.222l-17.841 4.248a7.5 7.5 0 00-5.402 4.998 44.94 44.94 0 01-2.799 6.738 7.497 7.497 0 00.284 7.357l9.617 15.628-6.52 6.52-15.627-9.616a7.496 7.496 0 00-7.355-.284 45.26 45.26 0 01-6.743 2.801 7.5 7.5 0 00-4.996 5.401l-4.248 17.84h-9.221l-4.248-17.84a7.497 7.497 0 00-4.996-5.401 45.067 45.067 0 01-6.743-2.801 7.496 7.496 0 00-7.355.284l-15.627 9.616-6.52-6.52 9.617-15.628a7.5 7.5 0 00.283-7.358 44.885 44.885 0 01-2.799-6.737 7.5 7.5 0 00-5.402-4.998l-17.841-4.248v-9.222l17.84-4.247a7.497 7.497 0 005.402-4.998 44.851 44.851 0 012.8-6.739 7.495 7.495 0 00-.283-7.357zm150.207 40.311h23.724v1.113c0 8.886 7.229 16.114 16.114 16.114h17.228c8.885 0 16.113-7.229 16.113-16.114v-1.113h70.023c4.142 0 7.5-3.357 7.5-7.5s-3.358-7.5-7.5-7.5h-70.023v-1.113c0-8.886-7.229-16.114-16.113-16.114h-17.228c-8.885 0-16.114 7.229-16.114 16.114v1.113H281.88c-4.142 0-7.5 3.357-7.5 7.5s3.358 7.5 7.5 7.5zm38.724-16.114c0-.614.5-1.114 1.114-1.114h17.228c.614 0 1.113.5 1.113 1.114v17.227c0 .614-.5 1.114-1.113 1.114h-17.228c-.614 0-1.114-.5-1.114-1.114zm-38.724 67.771h80.79v1.113c0 8.885 7.229 16.113 16.114 16.113h17.228c8.885 0 16.113-7.229 16.113-16.113v-1.113h12.958c4.142 0 7.5-3.357 7.5-7.5s-3.358-7.5-7.5-7.5h-12.958v-1.114c0-8.885-7.229-16.113-16.113-16.113h-17.228c-8.885 0-16.114 7.229-16.114 16.113v1.114h-80.79c-4.142 0-7.5 3.357-7.5 7.5s3.358 7.5 7.5 7.5zm95.789-16.114c0-.614.5-1.113 1.114-1.113h17.228c.614 0 1.113.499 1.113 1.113v17.228c0 .614-.5 1.113-1.113 1.113h-17.228a1.115 1.115 0 01-1.114-1.113zm-3.192-129.143h-17.228c-8.885 0-16.113 7.229-16.113 16.113v1.114H281.88c-4.142 0-7.5 3.357-7.5 7.5s3.358 7.5 7.5 7.5h59.256v1.113c0 8.886 7.229 16.114 16.113 16.114h17.228c8.885 0 16.114-7.229 16.114-16.114v-1.113h34.491c4.142 0 7.5-3.357 7.5-7.5s-3.358-7.5-7.5-7.5H390.59v-1.114c0-8.885-7.228-16.113-16.113-16.113zm1.113 33.341c0 .614-.5 1.114-1.114 1.114h-17.228c-.614 0-1.113-.5-1.113-1.114V90.865c0-.614.5-1.113 1.113-1.113h17.228c.614 0 1.114.499 1.114 1.113z"></path>
  </symbol>
  <symbol xmlns="http://www.w3.org/2000/svg" viewBox="0 0 480.006 480.006" id="grap">
    <path d="M40.003 48.006h104v16h-104zm0 32h104v16h-104zm0 32h72v16h-72zm0 32h72v16h-72zm-40 320h480v16h-480zM463.163 68.43l-32-64a8 8 0 00-10.73-3.587l-.006.003-64 32a8.004 8.004 0 007.152 14.32l46.352-23.16-12.648 36.112C341.69 218.446 198.501 329.522 31.323 344.006l1.36 16C206.16 344.978 354.737 229.701 412.395 65.398l12.912-36.896 23.536 47.08a8.004 8.004 0 0014.32-7.152zM96.003 384.006h-56a8 8 0 00-8 8v48a8 8 0 008 8h56a8 8 0 008-8v-48a8 8 0 00-8-8zm-8 48h-40v-32h40v32zm96-72h-56a8 8 0 00-8 8v72a8 8 0 008 8h56a8 8 0 008-8v-72a8 8 0 00-8-8zm-8 72h-40v-56h40v56zm96-112h-56a8 8 0 00-8 8v112a8 8 0 008 8h56a8 8 0 008-8v-112a8 8 0 00-8-8zm-8 112h-40v-96h40v96z"></path>
    <path d="M360.003 264.006h-56a8 8 0 00-8 8v168a8 8 0 008 8h56a8 8 0 008-8v-168a8 8 0 00-8-8zm-8 168h-40v-152h40v152zm96-280h-56a8 8 0 00-8 8v280a8 8 0 008 8h56a8 8 0 008-8v-280a8 8 0 00-8-8zm-8 280h-40v-264h40v264z"></path>
  </symbol>
  <symbol xmlns="http://www.w3.org/2000/svg" viewBox="0 0 42 42" id="line">
    <path d="M0 20h42v2H0z"></path>
  </symbol>
  <symbol xmlns="http://www.w3.org/2000/svg" viewBox="0 0 480 480" id="picture">
    <path d="M440 72H40C17.92 72.026.026 89.92 0 112v256c.026 22.08 17.92 39.974 40 40h400a37.03 37.03 0 006.696-.584C465.945 404.194 480.037 387.517 480 368V112c-.026-22.081-17.92-39.974-40-40zM40 392c-12.435-.002-22.81-9.501-23.904-21.888L175.6 265.824 337.808 392H40zm424-24c.013 11.742-8.492 21.761-20.08 23.656A21.746 21.746 0 01440 392h-76.136l-105.992-82.488 94.784-75.792L464 300.528V368zm0-86.128l-107.88-64.728a8 8 0 00-9.12.608l-102.136 81.68-63.96-49.744a8 8 0 00-9.28-.384L16 351.056V112c0-13.255 10.745-24 24-24h400c13.255 0 24 10.745 24 24v169.872z"></path>
    <path d="M240 120c-26.51 0-48 21.49-48 48 .026 26.499 21.501 47.974 48 48 26.51 0 48-21.49 48-48s-21.49-48-48-48zm0 80c-17.673 0-32-14.327-32-32s14.327-32 32-32c17.673 0 32 14.327 32 32s-14.327 32-32 32z"></path>
  </symbol>
  <symbol xmlns="http://www.w3.org/2000/svg" viewBox="0 0 95.333 95.332" id="quotes">
    <path d="M30.512 43.939c-2.348-.676-4.696-1.019-6.98-1.019-3.527 0-6.47.806-8.752 1.793 2.2-8.054 7.485-21.951 18.013-23.516a2.501 2.501 0 002.04-1.799l2.301-8.23a2.5 2.5 0 00-2.068-3.15 17.477 17.477 0 00-2.354-.16c-12.637 0-25.152 13.19-30.433 32.076-3.1 11.08-4.009 27.738 3.627 38.223 4.273 5.867 10.507 9 18.529 9.313l.098.002c9.898 0 18.675-6.666 21.345-16.209a22.032 22.032 0 00-2.032-16.851c-2.875-5.105-7.61-8.826-13.334-10.473zm61.959 10.474c-2.875-5.106-7.61-8.827-13.334-10.474-2.348-.676-4.696-1.019-6.979-1.019a21.94 21.94 0 00-8.753 1.793c2.2-8.054 7.485-21.951 18.014-23.516a2.503 2.503 0 002.04-1.799l2.301-8.23a2.5 2.5 0 00-2.068-3.15 17.455 17.455 0 00-2.354-.16c-12.637 0-25.152 13.19-30.434 32.076-3.099 11.08-4.008 27.738 3.629 38.225 4.272 5.866 10.507 9 18.528 9.312l.099.002c9.897 0 18.675-6.666 21.345-16.209a22.045 22.045 0 00-2.034-16.851z"></path>
  </symbol>
  <symbol xmlns="http://www.w3.org/2000/svg" viewBox="0 0 511.52 511.52" id="support">
    <path d="M396.504 325.142a7.499 7.499 0 00-7.5 7.5v29.347c-9.157 3.128-15.763 11.812-15.763 22.015 0 12.827 10.436 23.263 23.263 23.263 3.682 0 7.165-.864 10.263-2.393l24.95 24.95c1.465 1.464 3.385 2.196 5.304 2.196s3.839-.732 5.304-2.196a7.5 7.5 0 000-10.607l-24.95-24.95a23.122 23.122 0 002.393-10.262c0-10.203-6.606-18.887-15.763-22.015v-29.347a7.5 7.5 0 00-7.501-7.501zm8.263 58.862c0 4.556-3.707 8.263-8.263 8.263s-8.263-3.707-8.263-8.263 3.707-8.263 8.263-8.263 8.263 3.707 8.263 8.263zM192.066 166.798a7.498 7.498 0 00-9.741 4.197l-25.694 64.603a7.5 7.5 0 006.967 10.273 7.505 7.505 0 006.972-4.73l25.694-64.603a7.5 7.5 0 00-4.198-9.74zm29.245 78.438a7.467 7.467 0 003.014.636 7.503 7.503 0 006.87-4.483l28.399-64.603a7.499 7.499 0 00-6.866-10.518h-35.539c-4.142 0-7.5 3.357-7.5 7.5s3.358 7.5 7.5 7.5h24.049l-23.774 54.084a7.499 7.499 0 003.847 9.884zm-94.366-1.143a7.5 7.5 0 007.5-7.5v-13.767h4.05c4.142 0 7.5-3.357 7.5-7.5s-3.358-7.5-7.5-7.5h-4.05v-33.974c0-4.722-3.046-8.777-7.58-10.093-4.532-1.312-9.271.479-11.797 4.465-9.274 14.639-26.387 42.938-26.559 43.222a7.499 7.499 0 006.419 11.379h24.517v13.767a7.5 7.5 0 007.5 7.501zm-18.689-36.267a3884.745 3884.745 0 0111.189-18.269v18.269z"></path>
    <path d="M64.793 200.481c-10.23 14.617-16.335 22.61-19.615 26.905-4.085 5.35-5.95 7.791-4.674 11.938.75 2.44 2.598 4.312 5.069 5.135.994.332 1.948.649 14.562.649 4.928 0 11.637-.049 20.823-.164a7.5 7.5 0 00-.093-14.999l-.096.001c-6.392.08-13.168.133-18.828.146 3.574-4.783 8.508-11.532 15.141-21.009 4.141-5.917 6.843-11.513 8.03-16.631.057-.245.102-.494.133-.744l.319-2.499c.041-.314.061-.633.061-.95 0-13.25-10.78-24.03-24.03-24.03-11.457 0-21.374 8.15-23.58 19.381a7.5 7.5 0 0014.719 2.891c.828-4.213 4.554-7.271 8.861-7.271 4.843 0 8.808 3.832 9.021 8.624l-.198 1.545c-.802 3.167-2.693 6.893-5.625 11.082zm44.442 81.282c0-7.773-6.324-14.098-14.098-14.098H62.215c-7.773 0-14.098 6.324-14.098 14.098v32.922c0 7.773 6.324 14.098 14.098 14.098h32.922c7.773 0 14.098-6.324 14.098-14.098zm-15 32.019H63.118v-31.117h31.118v31.117zm93.476-32.019c0-7.773-6.324-14.098-14.098-14.098h-32.922c-7.773 0-14.098 6.324-14.098 14.098v32.922c0 7.773 6.324 14.098 14.098 14.098h32.922c7.773 0 14.098-6.324 14.098-14.098zm-15 32.019h-31.118v-31.117h31.118zm93.476-32.019c0-7.773-6.324-14.098-14.097-14.098h-32.922c-7.773 0-14.098 6.324-14.098 14.098v32.922c0 7.773 6.324 14.098 14.098 14.098h32.922c7.773 0 14.097-6.324 14.097-14.098zm-15 32.019H220.07v-31.117h31.117zm76.792-85.526v-32.923c0-7.773-6.324-14.098-14.098-14.098h-32.922c-7.773 0-14.098 6.324-14.098 14.098v32.923c0 7.773 6.324 14.098 14.098 14.098h32.922c7.774 0 14.098-6.324 14.098-14.098zm-15-.902h-31.117v-31.118h31.117zm46.006-46.118c-7.773 0-14.098 6.324-14.098 14.098v32.923c0 7.773 6.324 14.098 14.098 14.098h32.922c7.773 0 14.098-6.324 14.098-14.098v-32.923c0-7.773-6.324-14.098-14.098-14.098zm32.019 46.118h-31.117v-31.118h31.117zM62.215 402.65h32.922c7.773 0 14.098-6.324 14.098-14.098V355.63c0-7.773-6.324-14.098-14.098-14.098H62.215c-7.773 0-14.098 6.324-14.098 14.098v32.922c.001 7.773 6.325 14.098 14.098 14.098zm.903-46.118h31.118v31.117H63.118zm77.573 46.118h32.922c7.773 0 14.098-6.324 14.098-14.098V355.63c0-7.773-6.324-14.098-14.098-14.098h-32.922c-7.773 0-14.098 6.324-14.098 14.098v32.922c.001 7.773 6.325 14.098 14.098 14.098zm.903-46.118h31.118v31.117h-31.118zm110.496-15h-32.922c-7.773 0-14.098 6.324-14.098 14.098v32.922c0 7.773 6.324 14.098 14.098 14.098h32.922c7.773 0 14.097-6.324 14.097-14.098V355.63c0-7.773-6.324-14.098-14.097-14.098zm-.903 46.118H220.07v-31.117h31.117z"></path>
    <path d="M267.02 422.813H51.833C31.523 422.813 15 406.29 15 385.981V323.96c0-4.143-3.358-7.5-7.5-7.5s-7.5 3.357-7.5 7.5v62.021c0 28.58 23.252 51.832 51.833 51.832H267.02c4.143 0 7.5-3.357 7.5-7.5s-3.357-7.5-7.5-7.5zM7.5 299.497a7.5 7.5 0 007.5-7.5V141.539h337.387c4.143 0 7.5-3.357 7.5-7.5s-3.357-7.5-7.5-7.5H15v-24.875c0-20.31 16.523-36.832 36.833-36.832h52.223v15.993c0 11.571 9.414 20.985 20.985 20.985s20.985-9.414 20.985-20.985V64.832h150.62v15.993c0 11.571 9.413 20.985 20.984 20.985s20.985-9.414 20.985-20.985V64.832h52.223c20.31 0 36.833 16.522 36.833 36.832v24.875h-43.322c-4.143 0-7.5 3.357-7.5 7.5s3.357 7.5 7.5 7.5h43.322v110.49c0 4.143 3.357 7.5 7.5 7.5s7.5-3.357 7.5-7.5V101.664c0-28.58-23.252-51.832-51.833-51.832h-52.223V33.486c0-11.571-9.414-20.985-20.985-20.985s-20.984 9.414-20.984 20.985v16.347h-150.62V33.486c0-11.571-9.414-20.985-20.985-20.985s-20.985 9.414-20.985 20.985v16.347H51.833C23.252 49.832 0 73.084 0 101.664v190.333a7.5 7.5 0 007.5 7.5zM311.646 33.486a5.991 5.991 0 015.984-5.985 5.991 5.991 0 015.985 5.985v47.34c0 3.301-2.685 5.985-5.985 5.985s-5.984-2.685-5.984-5.985zm-192.59 0c0-3.301 2.685-5.985 5.985-5.985s5.985 2.685 5.985 5.985v47.34c0 3.301-2.685 5.985-5.985 5.985s-5.985-2.685-5.985-5.985zm388.393 320.112a7.501 7.501 0 00-14.469 3.957 99.978 99.978 0 013.251 18.949h-11.877c-4.143 0-7.5 3.357-7.5 7.5s3.357 7.5 7.5 7.5h11.885c-1.635 21.947-10.384 41.942-23.943 57.686l-8.37-8.37a7.5 7.5 0 00-10.606-.001 7.498 7.498 0 00-.001 10.606l8.37 8.371c-15.743 13.559-35.739 22.308-57.686 23.943v-11.887c0-4.143-3.357-7.5-7.5-7.5s-7.5 3.357-7.5 7.5v11.887c-21.947-1.635-41.942-10.384-57.685-23.943l8.371-8.371a7.5 7.5 0 00-10.607-10.607l-8.371 8.371c-13.558-15.743-22.308-35.738-23.943-57.685h11.886c4.143 0 7.5-3.357 7.5-7.5s-3.357-7.5-7.5-7.5h-11.886c1.635-21.947 10.384-41.943 23.943-57.686l8.371 8.371c1.464 1.464 3.384 2.196 5.303 2.196s3.839-.732 5.304-2.197a7.498 7.498 0 00-.001-10.606l-8.37-8.37c15.743-13.559 35.739-22.308 57.686-23.943v11.886c0 4.143 3.357 7.5 7.5 7.5s7.5-3.357 7.5-7.5v-11.878c21.571 1.596 41.694 10.038 57.739 23.881l-8.424 8.424a7.5 7.5 0 1010.608 10.607l8.406-8.406a101.639 101.639 0 018.602 11.586 7.5 7.5 0 1012.652-8.056c-21.259-33.39-57.552-53.323-97.083-53.323-63.42 0-115.016 51.596-115.016 115.016S333.084 499.02 396.504 499.02 511.52 447.424 511.52 384.004a115.3 115.3 0 00-4.071-30.406z"></path>
  </symbol>
  <symbol xmlns="http://www.w3.org/2000/svg" viewBox="0 0 24 24" id="wordpress">
    <path d="M12 0C5.385 0 0 5.381 0 12c0 6.615 5.385 12 12 12s12-5.385 12-12c0-6.62-5.385-12-12-12zM1.21 11.999c0-1.563.333-3.048.934-4.389l5.148 14.1a10.794 10.794 0 01-6.082-9.711zM12 22.79c-1.06 0-2.081-.155-3.048-.441l3.237-9.406 3.315 9.087c.024.054.049.101.077.15-1.118.392-2.323.61-3.581.61zm1.485-15.845v-.001a22.684 22.684 0 001.233-.101c.581-.068.513-.924-.068-.891 0 0-1.747.135-2.874.135-1.06 0-2.841-.135-2.841-.135-.58-.034-.647.857-.067.891 0 0 .551.068 1.132.101l1.679 4.606-2.361 7.079L5.39 6.944c.649-.034 1.234-.101 1.234-.101.581-.068.513-.924-.068-.891 0 0-1.747.135-2.874.135-.203 0-.441-.005-.697-.014A10.781 10.781 0 0112 1.21c2.807 0 5.366 1.075 7.287 2.83a1.333 1.333 0 00-.14-.009c-1.06 0-1.81.924-1.81 1.916 0 .89.513 1.64 1.06 2.531.411.716.891 1.64.891 2.976 0 .924-.353 1.993-.823 3.489l-1.075 3.595zm7.985-.122a10.746 10.746 0 011.321 5.178c0 3.982-2.158 7.456-5.366 9.324l-.001-.001 3.295-9.528c.614-1.539.823-2.767.823-3.866a7.99 7.99 0 00-.072-1.107z"></path>
  </symbol>
</svg>