<svg id="Capa_1" enable-background="new 0 0 512 512" height="512" viewBox="0 0 512 512" width="512" xmlns="http://www.w3.org/2000/svg"><g><g><path d="m64.65 264.081v32.325c0 4.143 3.358 7.5 7.5 7.5h367.7c4.142 0 7.5-3.357 7.5-7.5v-32.325c0-4.143-3.358-7.5-7.5-7.5h-367.7c-4.142 0-7.5 3.357-7.5 7.5zm15 7.5h352.7v17.325h-352.7z"/><path d="m484.3 10.1h-456.6c-15.274 0-27.7 12.426-27.7 27.7v333.36c0 15.274 12.426 27.7 27.7 27.7h153.959l-21.7 55.71h-25.179c-4.142 0-7.5 3.357-7.5 7.5v32.33c0 4.143 3.358 7.5 7.5 7.5h242.44c4.142 0 7.5-3.357 7.5-7.5v-32.33c0-4.143-3.358-7.5-7.5-7.5h-25.179l-21.7-55.71h68.629c4.142 0 7.5-3.357 7.5-7.5s-3.358-7.5-7.5-7.5h-371.27c-7.003 0-12.7-5.697-12.7-12.7v-333.36c0-7.003 5.697-12.7 12.7-12.7h456.6c7.003 0 12.7 5.697 12.7 12.7v333.36c0 7.003-5.697 12.7-12.7 12.7h-50.33c-4.142 0-7.5 3.357-7.5 7.5s3.358 7.5 7.5 7.5h50.33c15.274 0 27.7-12.426 27.7-27.7v-333.36c0-15.274-12.426-27.7-27.7-27.7zm-148.357 444.47h-113.763c-4.142 0-7.5 3.357-7.5 7.5s3.358 7.5 7.5 7.5h147.54v17.33h-227.44v-17.33h44.9c4.142 0 7.5-3.357 7.5-7.5s-3.358-7.5-7.5-7.5h-11.123l21.7-55.71h116.485z"/><path d="m72 42.43h-24.09c-8.591 0-15.58 6.989-15.58 15.58v262.64c0 8.591 6.989 15.58 15.58 15.58h416.18c8.591 0 15.58-6.989 15.58-15.58v-262.64c0-8.591-6.989-15.58-15.58-15.58h-357.09c-4.142 0-7.5 3.357-7.5 7.5s3.358 7.5 7.5 7.5h357.09c.32 0 .58.26.58.58v262.64c0 .32-.26.58-.58.58h-416.18c-.32 0-.58-.26-.58-.58v-262.64c0-.32.26-.58.58-.58h24.09c4.142 0 7.5-3.357 7.5-7.5s-3.358-7.5-7.5-7.5z"/><path d="m172.157 184.563c15.753 0 28.569-12.816 28.569-28.569s-12.816-28.569-28.569-28.569-28.569 12.816-28.569 28.569 12.815 28.569 28.569 28.569zm0-42.138c7.482 0 13.569 6.087 13.569 13.569s-6.087 13.569-13.569 13.569-13.569-6.087-13.569-13.569 6.087-13.569 13.569-13.569z"/><path d="m96.678 138.163c-3.379.804-5.763 3.823-5.763 7.296v21.069c0 3.473 2.384 6.491 5.763 7.296l19.677 4.686c.138.341.279.682.424 1.021l-10.601 17.228c-1.82 2.958-1.372 6.778 1.084 9.234l14.898 14.897c2.456 2.455 6.276 2.904 9.234 1.084l17.228-10.602c.339.145.679.286 1.02.424l4.686 19.677c.804 3.379 3.823 5.763 7.296 5.763h21.069c3.473 0 6.492-2.384 7.296-5.763l4.686-19.677c.341-.138.681-.279 1.02-.424l17.228 10.602c2.958 1.821 6.779 1.371 9.234-1.084l14.898-14.897c2.456-2.456 2.904-6.276 1.084-9.234l-10.602-17.228c.145-.34.286-.68.424-1.021l19.677-4.686c3.378-.805 5.763-3.823 5.763-7.296v-21.069c0-3.473-2.384-6.492-5.763-7.296l-19.676-4.685c-.138-.341-.279-.682-.424-1.021l10.601-17.228c1.82-2.958 1.372-6.778-1.084-9.233l-14.898-14.899c-2.456-2.455-6.277-2.902-9.234-1.084l-17.228 10.602c-.339-.145-.679-.286-1.021-.424l-4.685-19.677c-.804-3.378-3.823-5.763-7.296-5.763h-21.069c-3.473 0-6.492 2.385-7.296 5.763l-4.685 19.677c-.342.138-.682.279-1.021.424l-17.228-10.602c-2.958-1.82-6.778-1.37-9.234 1.084l-14.898 14.899c-2.456 2.455-2.904 6.275-1.084 9.233l10.602 17.228c-.145.339-.286.68-.424 1.021zm34.995-10.122-9.617-15.627 6.52-6.521 15.627 9.617c2.234 1.373 5.023 1.481 7.358.283 2.181-1.12 4.448-2.062 6.738-2.799 2.496-.804 4.391-2.852 4.998-5.402l4.248-17.841h9.221l4.248 17.841c.607 2.551 2.502 4.599 4.998 5.402 2.29.736 4.557 1.679 6.739 2.799 2.333 1.198 5.124 1.09 7.357-.283l15.627-9.617 6.52 6.521-9.616 15.627c-1.375 2.233-1.483 5.023-.285 7.356 1.121 2.183 2.063 4.451 2.8 6.74.803 2.496 2.852 4.391 5.402 4.998l17.84 4.247v9.222l-17.841 4.248c-2.55.607-4.599 2.502-5.402 4.998-.737 2.29-1.679 4.557-2.799 6.738-1.199 2.334-1.091 5.123.284 7.357l9.617 15.628-6.52 6.52-15.627-9.616c-2.233-1.374-5.022-1.483-7.355-.284-2.183 1.12-4.452 2.062-6.743 2.801-2.495.804-4.389 2.852-4.996 5.401l-4.248 17.84h-9.221l-4.248-17.84c-.607-2.55-2.501-4.598-4.996-5.401-2.292-.738-4.561-1.681-6.743-2.801-2.333-1.199-5.122-1.09-7.355.284l-15.627 9.616-6.52-6.52 9.617-15.628c1.375-2.234 1.482-5.024.283-7.358-1.12-2.18-2.062-4.447-2.799-6.737-.803-2.496-2.852-4.391-5.402-4.998l-17.841-4.248v-9.222l17.84-4.247c2.551-.607 4.599-2.502 5.402-4.998.737-2.29 1.679-4.558 2.8-6.739 1.2-2.334 1.092-5.124-.283-7.357z"/><path d="m281.88 168.352h23.724v1.113c0 8.886 7.229 16.114 16.114 16.114h17.228c8.885 0 16.113-7.229 16.113-16.114v-1.113h70.023c4.142 0 7.5-3.357 7.5-7.5s-3.358-7.5-7.5-7.5h-70.023v-1.113c0-8.886-7.229-16.114-16.113-16.114h-17.228c-8.885 0-16.114 7.229-16.114 16.114v1.113h-23.724c-4.142 0-7.5 3.357-7.5 7.5s3.358 7.5 7.5 7.5zm38.724-16.114c0-.614.5-1.114 1.114-1.114h17.228c.614 0 1.113.5 1.113 1.114v17.227c0 .614-.5 1.114-1.113 1.114h-17.228c-.614 0-1.114-.5-1.114-1.114z"/><path d="m281.88 220.009h80.79v1.113c0 8.885 7.229 16.113 16.114 16.113h17.228c8.885 0 16.113-7.229 16.113-16.113v-1.113h12.958c4.142 0 7.5-3.357 7.5-7.5s-3.358-7.5-7.5-7.5h-12.958v-1.114c0-8.885-7.229-16.113-16.113-16.113h-17.228c-8.885 0-16.114 7.229-16.114 16.113v1.114h-80.79c-4.142 0-7.5 3.357-7.5 7.5s3.358 7.5 7.5 7.5zm95.789-16.114c0-.614.5-1.113 1.114-1.113h17.228c.614 0 1.113.499 1.113 1.113v17.228c0 .614-.5 1.113-1.113 1.113h-17.228c-.614 0-1.114-.499-1.114-1.113z"/><path d="m374.477 74.752h-17.228c-8.885 0-16.113 7.229-16.113 16.113v1.114h-59.256c-4.142 0-7.5 3.357-7.5 7.5s3.358 7.5 7.5 7.5h59.256v1.113c0 8.886 7.229 16.114 16.113 16.114h17.228c8.885 0 16.114-7.229 16.114-16.114v-1.113h34.491c4.142 0 7.5-3.357 7.5-7.5s-3.358-7.5-7.5-7.5h-34.492v-1.114c0-8.885-7.228-16.113-16.113-16.113zm1.113 33.341c0 .614-.5 1.114-1.114 1.114h-17.228c-.614 0-1.113-.5-1.113-1.114v-17.228c0-.614.5-1.113 1.113-1.113h17.228c.614 0 1.114.499 1.114 1.113z"/></g></g></svg>